<svg xmlns="http://www.w3.org/2000/svg" width="900" height="590" viewBox="0 0 900 590">
 <rect width="100%" height="100%" fill="white"/>
 <style>text{font-family:Arial,Helvetica,sans-serif;fill:#222}.title{font-size:24px;font-weight:700}.sub{font-size:14px;fill:#555}.axis{font-size:13px;fill:#444}.tick{font-size:11px;fill:#666}.legend{font-size:12px}.note{font-size:11px;fill:#666}</style>
 <text x="70" y="42" class="title">Scenario-level equity improvement</text>
 <text x="70" y="66" class="sub">Time-based burdens show larger attainable equity gains than order count.</text><line x1="100" y1="475" x2="850" y2="475" stroke="#e8e8e8"/><text x="90" y="479" text-anchor="end" class="tick">0</text><line x1="100" y1="381.25" x2="850" y2="381.25" stroke="#e8e8e8"/><text x="90" y="385.25" text-anchor="end" class="tick">10</text><line x1="100" y1="287.5" x2="850" y2="287.5" stroke="#e8e8e8"/><text x="90" y="291.5" text-anchor="end" class="tick">20</text><line x1="100" y1="193.75" x2="850" y2="193.75" stroke="#e8e8e8"/><text x="90" y="197.75" text-anchor="end" class="tick">30</text><line x1="100" y1="100" x2="850" y2="100" stroke="#e8e8e8"/><text x="90" y="104" text-anchor="end" class="tick">40</text><line x1="100" y1="100" x2="100" y2="475" stroke="#444"/><line x1="100" y1="475" x2="850" y2="475" stroke="#444"/><rect x="195" y="358.3068317184142" width="110" height="116.69316828158583" fill="#2f4858" fill-opacity=".82"/><line x1="250" y1="227.59377270189273" x2="250" y2="489.01989073493564" stroke="#333" stroke-width="1.5"/><line x1="240" y1="227.59377270189273" x2="260" y2="227.59377270189273" stroke="#333"/><line x1="240" y1="489.01989073493564" x2="260" y2="489.01989073493564" stroke="#333"/><text x="250" y="219.59377270189273" text-anchor="middle" class="axis" font-weight="700">12.45%</text><text x="250" y="503" text-anchor="middle" class="axis" font-weight="700">S1</text><text x="250" y="522" text-anchor="middle" class="tick">Order Count</text><text x="250" y="544" text-anchor="middle" class="tick">Mean PoF: 1.19%</text><rect x="395" y="216.44147533028763" width="110" height="258.55852466971237" fill="#6b8e23" fill-opacity=".82"/><line x1="450" y1="138.1436137012999" x2="450" y2="294.73933695927536" stroke="#333" stroke-width="1.5"/><line x1="440" y1="138.1436137012999" x2="460" y2="138.1436137012999" stroke="#333"/><line x1="440" y1="294.73933695927536" x2="460" y2="294.73933695927536" stroke="#333"/><text x="450" y="130.1436137012999" text-anchor="middle" class="axis" font-weight="700">27.58%</text><text x="450" y="503" text-anchor="middle" class="axis" font-weight="700">S2</text><text x="450" y="522" text-anchor="middle" class="tick">Route Duration</text><text x="450" y="544" text-anchor="middle" class="tick">Mean PoF: 2.62%</text><rect x="595" y="224.6631779384901" width="110" height="250.3368220615099" fill="#b56576" fill-opacity=".82"/><line x1="650" y1="151.79676277873244" x2="650" y2="297.52959309824774" stroke="#333" stroke-width="1.5"/><line x1="640" y1="151.79676277873244" x2="660" y2="151.79676277873244" stroke="#333"/><line x1="640" y1="297.52959309824774" x2="660" y2="297.52959309824774" stroke="#333"/><text x="650" y="143.79676277873244" text-anchor="middle" class="axis" font-weight="700">26.70%</text><text x="650" y="503" text-anchor="middle" class="axis" font-weight="700">S3</text><text x="650" y="522" text-anchor="middle" class="tick">Waiting Time</text><text x="650" y="544" text-anchor="middle" class="tick">Mean PoF: 3.28%</text><text transform="translate(26 287.5) rotate(-90)" text-anchor="middle" class="axis">Mean pooled-knee equity improvement (%)</text><text x="475" y="574" text-anchor="middle" class="note">Bars = mean across 16 instances; error bars = ±1 SD.</text>
 <text x="830" y="572" text-anchor="end" class="note">Source: frozen Stage 1 primary set (16 instances)</text>
 </svg>